# xmcd CD database file
# Copyright (C) 1997 Ti Kan
# 
# Track frame offsets:
#     150
#     16280
#     32155
#     48080
#     64355
#     80155
#     96130
#     110905
#     128905
#     143080
#     158130
#     173030
#     188405
#     203495
#     220505
# 
# Disc length: 3205 seconds
# 
# Revision: 1
# Processed by: cddbd v1.4b41PL1 Copyright (c) Steve Scherf et al.
# Submitted via: DiscPlay 4.0.4
# 
DISCID=c80c830f
DTITLE=Baby Som - Forroz o Baby Som - Vol. IV
DYEAR=1900
DGENRE=
TTITLE0=Vem me fazer feliz
TTITLE1=Voc  faz tudo acontecer
TTITLE2=Amor sem fim
TTITLE3=Juro que te amei
TTITLE4=Na cama s  para mim
TTITLE5=S  sei dizer te amo
TTITLE6=Vem me renovar
TTITLE7=Vem amor
TTITLE8=Nossa separa  o
TTITLE9=Me ame
TTITLE10=P gina negra
TTITLE11=Cora  o apaixonado
TTITLE12=Te quero, te chamo
TTITLE13=A solid o, eu e a lua
TTITLE14=Vaquejada do futuro
EXTD=
EXTT0=
EXTT1=
EXTT2=
EXTT3=
EXTT4=
EXTT5=
EXTT6=
EXTT7=
EXTT8=
EXTT9=
EXTT10=
EXTT11=
EXTT12=
EXTT13=
EXTT14=
PLAYORDER=
